<?xml version="1.0" encoding="UTF-8" standalone="no"?>
<!-- Created with Inkscape (http://www.inkscape.org/) -->

<svg
   version="1.1"
   id="svg1"
   width="377.75693"
   height="377.75693"
   viewBox="0 0 377.75693 377.75693"
   sodipodi:docname="itpdefpindroplogo.svg"
   inkscape:version="1.4.2 (f4327f4, 2025-05-13)"
   xmlns:inkscape="http://www.inkscape.org/namespaces/inkscape"
   xmlns:sodipodi="http://sodipodi.sourceforge.net/DTD/sodipodi-0.dtd"
   xmlns="http://www.w3.org/2000/svg"
   xmlns:svg="http://www.w3.org/2000/svg">
  <defs
     id="defs1">
    <clipPath
       clipPathUnits="userSpaceOnUse"
       id="clipPath43">
      <path
         id="path44"
         style="fill:#ff0000;fill-opacity:1;fill-rule:nonzero;stroke:none"
         d="m 71.193359,208.36523 v 31.70704 c 1.297844,-2.76654 2.77548,-5.45146 4.685547,-7.85157 0.941126,-1.10883 1.891146,-2.16102 2.892578,-3.14843 0.334752,-0.42323 0.676407,-0.84034 1.025391,-1.25196 1.909978,-1.96749 4.024831,-3.71104 6.332031,-5.19922 0.397986,-0.24677 0.799443,-0.49027 1.207032,-0.72656 -0.290295,-0.27246 -0.314056,-0.4052 -0.07031,-0.60742 -0.0028,-0.007 -0.0069,-0.0129 -0.0098,-0.0195 v -0.002 -0.002 c 1e-5,-8e-4 -1.06e-4,-0.005 0,-0.006 v -0.002 c 0.03632,-0.11332 0.778255,-0.54351 1.439453,-0.90625 0.208064,-0.1384 0.413791,-0.27938 0.619141,-0.42188 -1.089527,-1.72736 -1.396846,-1.89643 -0.601562,-2.29687 v -0.002 h 0.002 v -0.002 l 0.002,-0.002 h 0.002 c 0.0045,-0.002 0.01278,-0.006 0.01953,-0.008 0.209021,-0.10386 0.440377,-0.20804 0.808594,-0.37696 0.02107,-0.009 0.04337,-0.0164 0.06445,-0.0254 0.222369,-0.12155 0.442317,-0.2481 0.666016,-0.36718 0.354019,-0.18846 0.710772,-0.37124 1.066406,-0.55664 2.436274,-1.26757 4.862656,-2.5523 7.300781,-3.81641 2.434883,-1.12327 4.905883,-2.20722 7.542973,-2.76563 2.79288,-0.58119 5.62841,-0.90022 8.48438,-0.91992 3.7569,-0.0322 7.50429,0.2129 11.23242,0.6836 0.56727,0.0689 1.13555,0.13407 1.70312,0.20117 -0.32901,-0.43022 -0.49788,-0.8811 -0.52539,-1.3086 z m 67.636721,0 c 0.28626,0.17012 0.56639,0.35312 0.83984,0.55079 1.94677,1.44624 3.6743,3.12997 5.45899,4.76171 0.84036,0.50985 1.67388,1.03187 2.50195,1.5625 3.21935,2.12612 6.27097,4.50245 9.04297,7.18555 2.78461,2.7771 4.67276,6.19521 6.49414,9.63672 1.93124,3.64017 3.5029,7.42854 4.69336,11.36914 0.8588,2.94418 1.48365,5.93627 1.89844,8.97266 0.28673,2.43299 0.55311,4.86887 0.7539,7.31054 1.10159,1.03998 0.83634,2.14114 0.084,3.81641 -0.0728,0.16641 -0.14508,0.33204 -0.21875,0.49805 -0.0877,0.27205 -0.20392,0.53481 -0.35352,0.78515 -0.81308,1.79248 -1.67441,3.56448 -2.55469,5.32422 -1.42735,3.06268 -2.98205,6.06066 -4.69531,8.97461 -1.81389,3.00373 -3.64391,5.99604 -5.62109,8.89649 -1.35471,2.18308 -2.70552,4.37165 -3.84766,6.67578 -0.77758,1.50034 -1.55944,3.0003 -2.20703,4.5625 -0.51685,1.38954 -1.10943,2.74732 -1.77539,4.07226 -0.39565,0.89652 -0.8155,1.78489 -1.29102,2.64258 -0.0175,0.10397 -0.034,0.2084 -0.0508,0.3125 -0.16554,1.56769 -0.43962,3.11841 -0.67773,4.67578 -0.13682,1.46362 -0.65096,2.86901 -1.99219,3.65625 -0.3186,0.187 -0.68791,0.27188 -1.03125,0.4082 -0.34527,0.0362 -0.68941,0.14068 -1.03516,0.10938 -1.48236,-0.13434 -2.70014,-1.00844 -3.36914,-2.30273 -0.0576,10e-4 -0.11734,0.002 -0.17578,0.002 -0.46267,-0.10374 -0.94482,-0.1406 -1.38672,-0.3125 -2.59531,-1.00951 -3.47728,-3.94882 -4.20117,-6.34766 -1.10475,-4.36648 -1.64105,-8.84854 -2.37695,-13.28711 -0.80795,-6.09174 -1.29755,-12.20989 -1.8125,-18.33203 -0.3096,-2.45034 -0.43798,-5.22773 -1.81836,-7.36328 -0.0152,-0.25096 -1.30024,-0.96147 -1.57422,-1.10742 -0.71698,-0.46067 -1.72657,-0.079 -2.54102,-0.19727 -0.75431,-0.002 -1.50913,-0.004 -2.26367,-0.008 1.01162,1.68401 1.12764,3.80554 1.20117,5.71484 -0.005,1.36895 -0.21871,2.7145 -0.47265,4.05469 0.23502,1.05493 0.45825,2.11282 0.61523,3.1836 0.27825,2.24818 0.3354,4.50935 0.50196,6.76757 0.18759,2.84532 0.23692,5.69815 0.14062,8.54883 -0.21441,3.87618 -0.51126,7.74571 -0.86914,11.61133 -0.24963,3.48614 -0.49543,6.97369 -0.66406,10.46484 -0.17137,2.79775 -0.39473,5.60057 -0.20508,8.4043 0.008,0.14923 0.0166,0.2981 0.0254,0.44727 0.27843,0.3942 0.55322,0.79144 0.82422,1.1914 0.98096,1.45103 1.48472,2.15589 2.36914,3.61133 0.73195,1.20452 2.49647,3.77915 1.00586,5.22461 -0.74788,0.72519 -2.01538,0.52616 -3.02344,0.78906 -0.23087,-0.14541 -0.47302,-0.27438 -0.70117,-0.42383 -0.0373,0.68148 -0.0944,1.36066 -0.17969,2.03711 H 314.94141 V 208.36523 Z m -4.90039,8.52344 c -0.69782,0.69437 -1.82136,0.90599 -2.74805,1.04688 -2.47621,0.17814 -4.95257,0.37651 -7.41211,0.72265 -2.02495,0.23325 -4.05162,0.47718 -6.06055,0.82422 -2.3561,0.40115 -4.73699,0.56578 -7.11718,0.76172 -2.97973,0.24811 -5.96734,0.42229 -8.92774,0.86328 -1.47677,0.18934 -2.98072,0.37585 -4.402341,0.83399 0.316117,1.77748 -0.845802,2.37153 -2.509766,3.05468 -1.014087,0.44558 -2.026462,0.89379 -3.009765,1.40039 -0.315225,0.35793 -0.624808,0.72091 -0.929688,1.0879 -1.115593,1.33688 -2.208522,2.69188 -3.34375,4.01171 -1.156942,1.42624 -2.38871,2.79238 -3.541016,4.22266 -0.306044,0.58982 -0.604903,1.18453 -0.90039,1.78125 -1.347116,2.67344 -2.829257,5.27425 -4.171875,7.94922 -0.225726,0.52624 -0.440596,1.05599 -0.644531,1.58984 -0.08258,0.3075 -0.163166,0.61678 -0.220704,0.92969 -0.530467,2.88494 -0.275329,5.85983 -0.40039,8.77148 -0.03679,2.77006 -0.148886,5.54946 0.06445,8.31446 0.09766,1.08613 0.212355,2.17036 0.333984,3.2539 0.67173,1.68322 1.57946,3.24369 2.63086,4.73829 1.491844,2.21622 2.95541,4.44995 4.384765,6.70703 0.725629,1.16604 1.415003,2.35274 2.087891,3.54882 0.583858,0.91266 1.148871,1.83688 1.666015,2.79102 0.909132,1.58901 1.760642,3.20893 2.589844,4.83984 0.593715,0.99269 1.212044,1.96958 1.859375,2.92774 2.023775,1.78219 4.072706,3.53461 6.132813,5.27734 4.226319,3.94815 8.112529,8.22511 11.841799,12.64453 1.14046,1.32603 2.28818,2.64677 3.42578,3.97657 -0.29078,-3.58823 -0.67866,-7.16602 -1.07812,-10.74415 -0.39489,-4.16975 -0.71702,-8.33919 -0.90821,-12.52343 -0.16903,-2.46667 -0.28411,-4.9395 -0.18164,-7.41211 0.0555,-2.10561 0.11151,-4.21704 0.39844,-6.30664 0.25492,-1.67745 0.60269,-3.33798 0.91211,-5.00586 0.31981,-1.49971 0.57133,-3.02701 1.13281,-4.46094 0.22672,-0.43087 0.52945,-1.05347 0.91602,-1.47852 -0.70433,-0.0706 -1.40018,-0.10425 -1.82617,-0.19531 -1.2506,-0.15353 -2.50492,-0.32295 -3.76563,-0.34765 -4.05962,-0.0796 -4.56274,-3.66239 -1.50781,-4.50586 0.10188,-1.19646 1.42549,-2.27485 3.79101,-1.98242 1.23882,0.15312 2.48635,0.21965 3.73243,0.28124 1.31583,0.0619 2.63414,0.0816 3.95117,0.0977 1.27544,0.0136 2.55067,0.0165 3.82617,0.0195 1.6524,-0.0549 2.86512,-0.0392 4.43164,0.59961 1.19887,0.53848 2.22767,1.32143 3.14648,2.2461 2.22551,2.78864 2.54825,6.49938 2.98829,9.91015 0.526,6.1134 0.99985,12.22465 1.80859,18.3086 0.35882,2.07956 0.65229,4.17471 0.98438,6.26171 0.008,-0.0166 0.0158,-0.0322 0.0234,-0.0488 1.07625,-2.34645 2.28224,-4.61995 3.76563,-6.74024 1.81053,-2.57843 3.78466,-5.04413 5.45117,-7.7207 1.29464,-2.21012 2.56159,-4.43547 3.87695,-6.63281 1.52933,-2.30683 3.15152,-4.55236 4.96289,-6.64844 1.70464,-2.14281 3.40719,-4.29098 5.25586,-6.3125 0.19381,-0.2041 0.38716,-0.4094 0.58203,-0.61328 -0.10733,-0.27475 -0.2001,-0.5586 -0.2832,-0.84961 -0.28968,-1.25259 -0.32945,-2.54618 -0.37305,-3.82617 -0.0384,-1.54074 -0.0447,-3.0819 -0.0527,-4.62305 -0.0691,-1.32871 0.10695,-2.68001 -0.0762,-4 -0.24609,-1.54571 -0.69603,-3.05668 -1.14453,-4.55469 -0.50188,-1.67253 -1.2458,-3.25292 -1.83204,-4.89453 -0.23125,-0.61512 -0.47878,-1.22347 -0.72656,-1.83203 -1.89614,-3.06982 -3.89781,-6.07679 -5.8457,-9.11328 -2.31193,-3.23232 -5.11421,-6.05026 -8.33398,-8.39063 -2.47193,-1.84024 -4.95935,-3.81221 -7.98438,-4.63476 -0.01,-0.003 -0.0193,-0.007 -0.0293,-0.01 -0.05,-0.0149 -0.3128,-0.0885 -0.66601,-0.1875 z m 121.38281,5.94531 c 2.03305,0.0125 4.06531,0.0297 6.09766,0.0879 2.50121,0.0769 5.00391,0.18397 7.49414,0.4414 2.80264,0.31269 5.5899,0.74333 8.38281,1.13086 2.54488,0.39369 5.09703,0.69924 7.6582,0.9668 1.12664,0.14982 2.27477,0.23954 3.38086,0.51367 0.21248,0.0527 0.59171,-0.0282 0.62891,0.1875 0.2494,1.44509 0.10831,2.92907 0.16211,4.39453 -0.0429,0.009 -0.0861,0.0195 -0.12891,0.0293 0.66972,1.15231 -0.01,2.88832 -2.50586,3.61914 -0.54374,0.1592 -1.08452,0.34059 -1.64453,0.43554 -1.21221,0.20959 -2.44727,0.33771 -3.67773,0.34571 -1.12372,-4e-5 -2.24738,2.4e-4 -3.3711,0 -1.19374,0 -2.38828,2.7e-4 -3.58203,-0.002 -1.71462,-0.003 -3.42797,-0.008 -5.14258,-0.0156 -2.33757,-0.0126 -4.67664,-0.0271 -7.01367,-0.082 -2.08045,-0.0579 -4.16569,-0.11521 -6.23242,-0.37891 -0.24643,-0.0407 -1.70109,-0.24546 -1.80469,-0.43359 -0.52949,-0.96145 -1.07783,-2.03781 -1.09961,-3.12891 -0.0419,-0.005 -0.0831,-0.0122 -0.125,-0.0176 -2.81011,-0.27295 -5.64283,-0.45986 -8.40039,-1.10156 -0.76007,-0.21485 -2.14994,-0.47856 -2.62109,-1.22656 -1.49554,-2.37432 -0.40314,-3.88433 1.75781,-4.70117 1.69127,-0.46748 3.42308,-0.66145 5.16211,-0.86914 2.20269,-0.22433 4.41247,-0.23402 6.625,-0.19532 z m 0.45312,11.20118 c -0.21521,0.0329 -0.31293,0.0557 -0.33007,0.0645 h -0.002 v 0.002 h 0.002 c 0.0225,0.003 0.15519,-0.0158 0.33007,-0.0664 z m 30.28907,1.19726 c 0.50111,-0.0175 1.01185,-5.7e-4 1.52539,0.0352 0.20735,0.0363 0.41517,0.0754 0.62304,0.11719 0.53477,0.0444 1.06732,0.1292 1.59766,0.26562 1.45025,0.2921 2.91538,0.49138 4.36524,0.78711 1.7125,0.30361 3.39544,0.73139 4.94336,1.55078 1.69078,0.91873 3.20224,2.04115 3.66796,4.02149 0.28532,1.74216 0.13398,3.46653 -0.37109,5.16211 -0.51271,1.65987 -1.23667,3.17129 -2.37109,4.50195 -0.44521,0.65095 -0.88282,1.31063 -1.22461,2.01953 -0.0794,0.88884 -0.17274,1.77724 -0.30664,2.66016 -0.34467,1.90815 -0.74601,3.85514 -1.97852,5.41015 -1.56135,1.40311 -2.96824,1.85996 -5.03516,2.07422 -1.91401,0.17413 -3.83101,0.44145 -5.75585,0.37305 -1.0458,-0.12461 -1.94678,-0.34303 -2.66016,-0.7461 -2.78296,-0.4444 -3.39685,-2.68441 -1.83984,-3.86914 -0.0494,-1.35488 -0.11413,-2.70942 -0.22852,-4.06054 -0.1507,-1.65618 -0.25213,-3.31281 -0.26563,-4.97657 -0.0631,-1.47921 -0.17827,-2.95377 -0.35742,-4.42382 -0.18731,-1.72149 -0.30168,-3.45772 -0.20508,-5.18946 0.16108,-1.12646 0.41324,-2.21682 1.04493,-3.11914 0.027,-0.0489 0.055,-0.0983 0.084,-0.14648 0.18934,-0.31464 0.44137,-0.58739 0.66211,-0.88086 1.16352,-1.14641 2.58261,-1.51385 4.08594,-1.56641 z m -40.27539,0.28711 c 0.83197,-0.0288 1.65848,0.005 2.45508,0.25586 0.39277,0.12355 0.75248,0.33303 1.1289,0.5 0.33374,0.27682 0.71948,0.5011 1.00195,0.83008 1.323,1.5406 1.33636,3.65516 1.31836,5.5625 -0.005,0.18755 -0.01,0.37501 -0.0156,0.5625 0.32,0.56693 0.57338,1.17526 0.74219,1.83789 0.47199,2.05559 0.64372,4.16853 0.66992,6.27539 -0.006,2.47026 -0.0917,4.96696 -0.58008,7.39453 -0.0291,0.0895 -0.0586,0.17837 -0.0859,0.26758 2.76228,0.81033 2.18143,4.30486 -1.75586,4.53516 -1.25902,0.0736 -2.48984,-0.14609 -3.70898,-0.42383 -0.0728,-0.0153 -0.14789,-0.032 -0.22266,-0.0508 -0.13453,-0.0314 -0.26808,-0.0635 -0.40234,-0.0957 -0.45259,0.19527 -0.91711,0.36269 -1.38867,0.50586 -0.31752,0.35054 -0.72671,0.48566 -1.61133,0.39649 -0.40883,0.0789 -0.82137,0.14437 -1.23438,0.19726 -2.22017,0.13151 -3.90385,-0.83186 -4.08203,-3.26562 -0.0239,-0.32679 0.0223,-0.65494 0.0332,-0.98242 0.0945,-0.63959 0.24421,-1.26617 0.42578,-1.88477 -0.72848,-1.15195 -1.41016,-2.33467 -1.97266,-3.57617 -0.85867,-2.04036 -1.59496,-4.14251 -1.79883,-6.36328 -0.044,-1.04421 -0.0254,-2.09156 0.0957,-3.12891 -0.40267,-0.93087 -0.72367,-1.89747 -0.99805,-2.87305 -0.2682,-1.1154 -0.61021,-2.51461 0.11523,-3.55664 0.93343,-1.34079 1.33499,-1.32487 2.64063,-1.86914 2.19128,-0.63589 4.48243,-0.7836 6.74805,-0.92969 0.81415,-0.002 1.65044,-0.0923 2.48242,-0.12109 z m 42.50976,12.35352 c 0.004,0.0636 0.008,0.1259 0.0117,0.18945 0.0232,0.007 0.047,0.0125 0.0703,0.0156 0.003,1.4e-4 0.008,2.3e-4 0.01,0 h 0.002 0.002 l 0.002,-0.002 h 0.002 l 0.002,-0.002 0.002,-0.002 0.002,-0.002 v -0.002 l 0.002,-0.002 v -0.002 c 0.009,-0.0423 -0.056,-0.15484 -0.10742,-0.1914 z M 71.193359,273.70508 v 63.79101 h 45.361331 c -0.0434,-0.19511 -0.087,-0.3903 -0.12891,-0.58593 -0.33406,0.0319 -0.72986,0.0541 -1.20312,0.0723 -0.8493,0.0326 -2.07723,-2.39254 -2.46485,-3.08398 -1.04998,-1.85444 -2.22313,-3.63915 -3.51172,-5.33594 -1.76729,-2.1255 -3.36112,-4.38714 -4.97265,-6.63086 -2.02687,-2.63771 -3.94163,-5.34786 -5.750002,-8.13867 -1.541737,-2.36291 -3.032963,-4.75759 -4.400391,-7.22461 -0.03813,-0.053 -0.07531,-0.10514 -0.113281,-0.1582 -2.161552,-2.87963 -4.272195,-5.80448 -6.658204,-8.50586 -2.336596,-2.60697 -4.682758,-5.20807 -6.945312,-7.87891 -1.920365,-2.38932 -3.765631,-4.83427 -5.443359,-7.40234 -1.400245,-2.41294 -2.579742,-4.95723 -3.394532,-7.63086 -0.129194,-0.42774 -0.254076,-0.85687 -0.375,-1.28711 z m 83.433591,5.88672 c -0.083,0.12418 -0.16561,0.24845 -0.24804,0.37304 -0.84663,1.4308 -1.67742,2.86862 -2.51172,4.30664 0.16252,-0.2037 0.32504,-0.40623 0.48828,-0.60937 0.76145,-1.35475 1.51814,-2.71106 2.27148,-4.07031 z m -11.03515,17.00976 c -0.71773,1.23636 -1.3558,2.51608 -1.95313,3.82032 -0.27701,0.61095 -0.49323,1.24189 -0.66211,1.88476 0.48621,-1.36154 1.11637,-2.65976 1.79688,-3.93164 0.26252,-0.59571 0.53481,-1.18774 0.81836,-1.77344 z m -29.44922,30.73828 c 0.14172,0.20221 0.28269,0.40511 0.42187,0.60938 2.5e-4,-0.005 -2.4e-4,-0.009 0,-0.0137 -0.0892,-0.15579 -0.17922,-0.31076 -0.27148,-0.46485 -0.0499,-0.0437 -0.10043,-0.0872 -0.15039,-0.13086 z m 11.15234,4.36914 c -0.0119,0.002 -0.0233,0.004 -0.0352,0.006 0.25865,0.26092 0.36084,0.36023 0.3789,0.37305 h 0.002 c -0.0257,-0.0377 -0.33273,-0.365 -0.3457,-0.37891 z m -3.95703,5.52735 c 0.004,0.0126 0.008,0.0245 0.0117,0.0371 0.0176,0.0193 0.0585,0.0659 0.0703,0.0781 -0.0287,-0.0397 -0.0554,-0.0779 -0.082,-0.11523 z" />
    </clipPath>
  </defs>
  <sodipodi:namedview
     id="namedview1"
     pagecolor="#ffffff"
     bordercolor="#000000"
     borderopacity="0.25"
     inkscape:showpageshadow="2"
     inkscape:pageopacity="0.0"
     inkscape:pagecheckerboard="0"
     inkscape:deskcolor="#d1d1d1"
     showguides="true"
     inkscape:zoom="0.75529412"
     inkscape:cx="399.18224"
     inkscape:cy="400.50623"
     inkscape:window-width="1920"
     inkscape:window-height="1009"
     inkscape:window-x="-8"
     inkscape:window-y="-8"
     inkscape:window-maximized="1"
     inkscape:current-layer="g1" />
  <g
     inkscape:groupmode="layer"
     inkscape:label="Image"
     id="g1">
    <g
       id="g46"
       transform="matrix(2.8398262,0,0,2.8398262,-494.62527,-573.89204)">
      <path
         style="fill:#000000"
         d="m 264.43375,334.23242 c -0.27785,-0.0502 -0.62144,-0.17812 -0.76352,-0.28419 -0.2509,-0.18733 -1.14805,-1.33501 -1.83076,-2.34202 -0.18488,-0.2727 -0.93924,-1.34785 -1.67635,-2.38921 -0.73712,-1.04137 -2.08265,-2.94536 -2.99008,-4.23109 -2.24874,-3.18624 -2.25413,-3.1938 -4.9761,-6.97613 -1.32281,-1.83813 -2.94796,-4.10983 -3.61144,-5.04823 -2.13976,-3.02638 -3.48958,-4.92617 -4.01329,-5.64848 -0.28145,-0.38818 -0.94059,-1.31795 -1.46475,-2.06617 -0.52416,-0.74822 -1.41036,-2.00517 -1.96934,-2.79323 -0.55898,-0.78806 -1.25531,-1.77825 -1.5474,-2.20042 -0.60316,-0.87179 -1.04214,-1.50096 -1.58883,-2.27719 -0.20813,-0.29552 -0.66097,-0.95181 -1.00631,-1.45842 -0.61139,-0.8969 -1.2075,-1.74977 -2.46793,-3.53092 -0.33859,-0.47846 -1.19088,-1.72196 -1.89397,-2.76333 -0.7031,-1.04136 -1.47322,-2.16972 -1.71139,-2.50746 -0.23817,-0.33774 -0.63982,-0.91343 -0.89255,-1.27932 -0.25273,-0.36588 -0.83018,-1.19488 -1.28322,-1.84221 -1.19633,-1.70941 -3.22052,-4.77983 -4.05644,-6.15304 -3.32781,-5.46682 -5.21045,-11.08193 -5.81218,-17.33525 -0.24582,-2.55456 -0.22098,-7.48599 0.05,-9.9275 0.32063,-2.88887 0.83243,-5.46635 1.57498,-7.93177 0.14411,-0.47847 0.37947,-1.26774 0.52302,-1.75395 0.86589,-2.93269 3.0137,-7.69226 4.61209,-10.22046 0.12456,-0.19702 0.49564,-0.79574 0.82463,-1.33049 1.0993,-1.78688 2.58479,-3.73824 4.58378,-6.02132 3.48598,-3.98139 7.85878,-7.48289 12.34885,-9.88827 4.88728,-2.61819 8.98428,-4.04642 14.37953,-5.01277 2.68984,-0.48178 3.94505,-0.58911 7.52239,-0.64324 4.92527,-0.0745 8.44327,0.21039 11.71855,0.94904 1.60295,0.3615 3.33313,0.79376 3.88912,0.97163 2.71519,0.86862 3.45726,1.1414 5.27079,1.9375 1.74766,0.76718 4.40119,2.17446 6.14345,3.25814 3.82169,2.37707 8.29684,6.14226 11.10175,9.34051 0.45032,0.51347 0.86534,0.98643 0.92226,1.05103 1.04294,1.18348 3.05692,4.00559 4.247,5.95114 1.48353,2.42526 3.44667,6.62941 4.0383,8.64818 0.0742,0.25331 0.29695,0.99019 0.49492,1.63753 0.19797,0.64733 0.45797,1.63322 0.57779,2.19085 0.11982,0.55764 0.23858,1.04742 0.26391,1.08841 0.0253,0.041 0.0896,0.36769 0.14272,0.72599 0.0532,0.35831 0.21044,1.3423 0.34951,2.18665 0.95167,5.77784 0.47536,13.02854 -1.21354,18.47334 -0.57495,1.85357 -0.89803,2.8217 -1.17832,3.53092 -0.17797,0.45032 -0.38904,0.99478 -0.46904,1.20992 -0.4882,1.31286 -2.32597,4.84118 -3.82099,7.33592 -0.32046,0.53476 -0.8694,1.45587 -1.21985,2.04692 -0.35046,0.59105 -0.83397,1.39702 -1.07447,1.79105 -0.24049,0.39403 -0.71431,1.17697 -1.05293,1.73987 -0.33861,0.5629 -0.99893,1.6452 -1.46737,2.40512 -0.46843,0.75991 -1.06847,1.7501 -1.33341,2.20042 -0.51982,0.88354 -2.72758,4.56355 -3.43841,5.73135 -0.52602,0.86416 -2.66278,4.59665 -3.06006,5.34529 -0.40931,0.77131 -0.57505,0.89075 -1.21527,0.87576 -0.66602,-0.0156 -1.10781,-0.19822 -1.67751,-0.69344 -0.50878,-0.44225 -0.84082,-1.03208 -0.84082,-1.49359 0,-0.38876 0.60022,-1.61919 1.29848,-2.66181 0.27925,-0.41698 1.26002,-2.02467 2.17949,-3.57264 3.23177,-5.44089 5.09707,-8.56166 6.08666,-10.18337 1.055,-1.72891 2.59781,-4.35578 3.82726,-6.51648 0.83585,-1.46898 2.39579,-4.64027 2.8861,-5.86732 0.96759,-2.42149 1.83023,-5.32223 2.19141,-7.36887 0.0894,-0.50661 0.22901,-1.28956 0.31024,-1.73988 0.15286,-0.84739 0.30047,-2.54475 0.41387,-4.75906 0.0677,-1.32263 -0.098,-5.72456 -0.2563,-6.80597 -0.88149,-6.023 -2.60362,-10.94531 -5.22779,-14.94243 -0.22173,-0.33774 -0.43531,-0.68179 -0.47461,-0.76455 -0.0834,-0.17565 -0.9289,-1.42328 -1.80533,-2.66402 -0.9324,-1.31998 -2.8412,-3.57112 -4.37467,-5.15925 -2.95243,-3.05768 -7.05131,-6.15617 -11.01235,-8.32464 -1.66626,-0.91219 -4.58551,-2.20072 -6.12349,-2.70284 -0.33774,-0.11027 -0.84435,-0.28586 -1.1258,-0.3902 -0.50247,-0.18628 -2.06358,-0.64539 -3.27505,-0.96316 -0.61512,-0.16136 -2.28295,-0.47757 -3.53092,-0.66946 -1.25011,-0.19221 -3.83627,-0.41006 -5.629,-0.47416 -2.42482,-0.0867 -6.74106,0.19329 -8.75053,0.56762 -3.34354,0.62285 -5.67145,1.24458 -8.75053,2.33706 -2.6312,0.93356 -5.94354,2.68516 -8.66799,4.58371 -3.88341,2.70618 -7.98915,6.81312 -10.57814,10.58125 -3.34105,4.86269 -5.69597,10.18627 -6.94942,15.71002 -0.17883,0.78806 -0.38743,1.70917 -0.46355,2.04691 -0.17313,0.76814 -0.40539,2.39494 -0.63561,4.45202 -0.23582,2.10713 -0.23239,5.57259 0.007,7.52239 0.34318,2.78993 0.42313,3.22265 1.08727,5.88486 1.05442,4.22661 3.03817,8.40539 6.24321,13.15139 2.10887,3.12281 2.81993,4.16627 3.48712,5.11728 0.3949,0.5629 0.99969,1.43795 1.34398,1.94456 0.34428,0.50661 0.79468,1.15139 1.00088,1.43284 0.2062,0.28145 0.73513,1.04136 1.17539,1.6887 0.44026,0.64733 1.17126,1.70323 1.62444,2.34644 0.96148,1.36467 1.47769,2.10269 2.26019,3.23138 1.55051,2.23648 2.08374,2.99163 3.69165,5.22803 2.53824,3.53036 2.92637,4.07256 3.40067,4.75065 0.0984,0.14072 0.85015,1.2 1.67048,2.35394 0.82033,1.15395 1.71603,2.42047 1.99045,2.8145 0.27441,0.39403 0.63019,0.90064 0.79061,1.1258 0.16042,0.22516 0.40366,0.57058 0.54053,0.76759 0.39238,0.56479 1.63853,2.30136 2.86526,3.99287 1.41475,1.95077 1.37366,1.89367 2.35394,3.2712 0.81151,1.14035 1.167,1.64236 2.35395,3.32409 0.94195,1.33462 0.94199,1.33467 2.3479,3.21243 0.7363,0.98342 1.38139,1.75096 1.45771,1.73442 0.21887,-0.0474 0.30474,-15.71326 0.26411,-48.1832 -0.0118,-9.42858 -0.0528,-24.48277 -0.091,-33.45377 -0.0696,-16.31091 -0.0696,-16.31091 -0.30102,-16.57996 -0.23145,-0.26905 -0.23145,-0.26905 -6.51331,-0.26905 -7.06472,0 -6.74732,0.0341 -6.90434,-0.74123 -0.12696,-0.62686 -0.098,-2.29886 0.0457,-2.639 0.27675,-0.65501 -0.82787,-0.60828 15.16972,-0.64175 13.4295,-0.0281 14.60988,-0.0171 14.90834,0.13947 0.28399,0.14894 0.34419,0.25883 0.48615,0.88742 0.31934,1.41412 0.12379,2.60305 -0.46852,2.84839 -0.24391,0.10103 -1.52815,0.11428 -5.95768,0.0615 -5.58232,-0.0666 -6.23455,-0.0399 -6.42648,0.26247 -0.0453,0.0714 -0.0831,23.30144 -0.084,51.62235 -8.7e-4,28.32089 -0.0304,51.63653 -0.0656,51.81252 -0.10451,0.52258 -0.77963,1.19707 -1.44891,1.44759 -0.66599,0.24927 -2.03231,0.34731 -2.83024,0.20307 z"
         id="path1-8"
         clip-path="url(#clipPath43)"
         transform="translate(-26.213616,-2.8086017)"
         sodipodi:nodetypes="cssssssssssssssssssssssssssssssscssssscssssssssssssssssssssssscssssssssssssssssscsssssssssssssssssssscsssssssscssssccsc" />
      <path
         d="m 238.6523,264.3705 c -0.0265,-27.16564 -0.0516,-31.72309 -0.17533,-31.79956 -0.29462,-0.18208 -1.27404,-0.21407 -5.5705,-0.18192 -4.62044,0.0346 -4.86789,0.0587 -5.24317,0.51127 -0.0693,0.0835 -0.35568,0.81601 -0.63652,1.62779 -0.56312,1.62778 -0.71546,1.83417 -1.35372,1.83417 -0.90329,0 -1.10917,-0.39527 -1.10441,-2.12038 0.002,-0.66321 0.0662,-1.70683 0.14298,-2.31914 0.12826,-1.02243 0.16574,-1.13938 0.45918,-1.43284 0.31953,-0.31954 0.31953,-0.31954 14.90901,-0.3465 13.35836,-0.0247 14.6194,-0.0128 14.94402,0.14127 0.19499,0.0925 0.4038,0.26031 0.46403,0.37285 0.13889,0.25952 0.33036,3.94033 0.24214,4.65499 -0.0764,0.61883 -0.30542,0.84506 -0.85555,0.84506 -0.50361,0 -0.94341,-0.50912 -1.2988,-1.50352 -0.15711,-0.43959 -0.35852,-1.0017 -0.44757,-1.24914 -0.27335,-0.75953 -0.47361,-0.84204 -2.27547,-0.93757 -1.55182,-0.0823 -8.29075,-0.58298 -8.24954,0.22424 0.003,0.054 -0.0419,31.67116 -0.0611,31.65665 -0.0193,-0.0145 -3.88964,0.0222 -3.88964,0.0222 z m -25.24322,1.3232 c -0.28924,-0.28924 0.19732,-0.66913 1.12655,-0.87956 1.00137,-0.22676 2.1175,-0.70376 2.30059,-0.98318 0.50186,-0.76594 0.49512,-0.64291 0.53864,-9.83265 0.0408,-8.61553 0.0408,-8.61553 -0.21264,-8.78159 -0.13938,-0.0913 -0.99761,-0.31789 -1.90717,-0.50346 -1.79069,-0.36535 -2.13761,-0.52886 -1.8124,-0.85421 0.16563,-0.1657 0.61986,-0.18137 6.06973,-0.2094 6.21725,-0.032 6.22466,-0.0314 6.15825,0.4285 -0.0337,0.23315 -0.45289,0.36973 -2.42304,0.7894 -1.28771,0.27429 -1.50633,0.43497 -1.65652,1.21752 -0.13241,0.68985 -0.14793,17.0953 -0.0166,17.55224 0.0485,0.16887 0.23337,0.40514 0.41076,0.52504 0.28928,0.19554 1.53502,0.53043 2.6279,0.70645 0.57949,0.0933 0.97582,0.32297 0.97582,0.56539 0,0.1129 -0.0576,0.224 -0.12794,0.24688 -0.29971,0.0975 -11.95487,0.10968 -12.05192,0.0126 z m 41.20902,-0.11163 c -0.099,-0.25793 0.36403,-0.49524 1.78172,-0.91321 0.5349,-0.15771 0.95752,-0.34859 1.0876,-0.49123 0.47109,-0.51655 0.47241,-0.54334 0.48342,-9.81372 0.012,-10.06522 0.12612,-9.04652 -1.05347,-9.40066 -1.53534,-0.46095 -2.09861,-0.61806 -2.21587,-0.61806 -0.0681,0 -0.183,-0.0714 -0.25542,-0.15865 -0.10887,-0.13118 -0.10156,-0.18878 0.0422,-0.33262 0.15891,-0.15898 0.69164,-0.1769 6.1831,-0.20795 5.28618,-0.0299 6.15073,-0.0127 7.18532,0.14277 2.19473,0.32986 3.41864,0.90446 4.65996,2.18776 1.35324,1.39901 1.86347,2.72372 1.75657,4.56059 -0.0353,0.60701 -0.14165,1.25965 -0.26132,1.60393 -0.59509,1.71206 -1.97836,2.91011 -4.1586,3.60177 -1.28306,0.40703 -2.04471,0.50992 -5.34536,0.72208 -1.33628,0.0859 -2.12552,0.1789 -2.22602,0.26231 -0.22922,0.19023 -0.23045,6.16072 -10e-4,6.93191 0.19228,0.64746 0.395,0.74167 2.25547,1.0481 1.4051,0.23143 1.80907,0.3483 2.00025,0.57865 0.0899,0.1083 0.0877,0.17936 -0.009,0.29603 -0.11054,0.13319 -0.90353,0.15352 -5.98879,0.15352 -5.11224,0 -5.8689,-0.0196 -5.92021,-0.15332 z m 11.3461,-10.32294 c 1.61532,-0.28996 2.99251,-1.57813 3.6486,-3.41276 0.26152,-0.73127 0.3749,-2.92791 0.19966,-3.86791 -0.12844,-0.68893 -0.51113,-1.53842 -0.90271,-2.00377 -0.31236,-0.37122 -1.19838,-0.8318 -1.97327,-1.02578 -0.61261,-0.15335 -4.03251,-0.20339 -4.52196,-0.0662 -0.15105,0.0423 -0.31071,0.18051 -0.35481,0.30703 -0.11721,0.33626 -0.0452,9.17075 0.0779,9.56245 0.0799,0.25405 0.19724,0.35958 0.53171,0.47806 0.53847,0.19076 2.30666,0.20623 3.29488,0.0288 z"
         style="opacity:0;fill:#000000"
         id="path1-1"
         sodipodi:nodetypes="sssssscsssssssssssscssssssssssssssssssscssssssssssssssscsscscccsssssssscc" />
      <path
         d="m 238.66159,258.13939 c 0,0 -0.0516,-31.72309 -0.17533,-31.79956 -0.29462,-0.18208 -1.27404,-0.21407 -5.5705,-0.18192 -4.62044,0.0346 -4.86789,0.0587 -5.24317,0.51127 -0.0693,0.0835 -0.35568,0.81601 -0.63652,1.62779 -0.56312,1.62778 -0.71546,1.83417 -1.35372,1.83417 -0.90329,0 -1.10917,-0.39527 -1.10441,-2.12038 0.002,-0.66321 0.0662,-1.70683 0.14298,-2.31914 0.12826,-1.02243 0.16574,-1.13938 0.45918,-1.43284 0.31953,-0.31954 0.31953,-0.31954 14.90901,-0.3465 13.35836,-0.0247 14.6194,-0.0128 14.94402,0.14127 0.19499,0.0925 0.4038,0.26031 0.46403,0.37285 0.13889,0.25952 0.33036,3.94033 0.24214,4.65499 -0.0764,0.61883 -0.30542,0.84506 -0.85555,0.84506 -0.50361,0 -0.94341,-0.50912 -1.2988,-1.50352 -0.15711,-0.43959 -0.35852,-1.0017 -0.44757,-1.24914 -0.27335,-0.75953 -0.47361,-0.84204 -2.27547,-0.93757 -2.43225,-0.12895 -7.46078,-0.11982 -7.84536,0.0142 -0.21715,0.0757 -0.40394,0.19909 -0.40418,0.38558 l -0.0401,31.4981 c 0.0363,-0.01 -3.91063,0.005 -3.91063,0.005 z m -25.24321,1.3232 c -0.28925,-0.28924 0.19731,-0.66913 1.12654,-0.87956 1.00137,-0.22676 2.1175,-0.70376 2.30059,-0.98318 0.50186,-0.76594 0.49512,-0.64291 0.53864,-9.83265 0.0408,-8.61553 0.0408,-8.61553 -0.21264,-8.78159 -0.13938,-0.0913 -0.99761,-0.31789 -1.90717,-0.50346 -1.79069,-0.36535 -2.13761,-0.52886 -1.8124,-0.85421 0.16563,-0.1657 0.61986,-0.18137 6.06973,-0.2094 6.21725,-0.032 6.22466,-0.0314 6.15825,0.4285 -0.0337,0.23315 -0.45289,0.36973 -2.42304,0.7894 -1.28771,0.27429 -1.50632,0.43497 -1.65652,1.21752 -0.13241,0.68985 -0.14793,17.0953 -0.0166,17.55224 0.0485,0.16887 0.23338,0.40514 0.41076,0.52504 0.28928,0.19554 1.53502,0.53043 2.6279,0.70645 0.57949,0.0933 0.97582,0.32297 0.97582,0.56539 0,0.1129 -0.0576,0.224 -0.12794,0.24688 -0.29971,0.0975 -11.95487,0.10968 -12.05192,0.0126 z m 41.20901,-0.11163 c -0.099,-0.25793 0.36403,-0.49524 1.78172,-0.91321 0.5349,-0.15771 0.95752,-0.34859 1.0876,-0.49123 0.47109,-0.51655 0.47241,-0.54334 0.48342,-9.81372 0.012,-10.06522 0.12612,-9.04652 -1.05347,-9.40066 -1.53534,-0.46095 -2.09861,-0.61806 -2.21587,-0.61806 -0.0681,0 -0.183,-0.0714 -0.25542,-0.15865 -0.10887,-0.13118 -0.10156,-0.18878 0.0422,-0.33262 0.15891,-0.15898 0.69164,-0.1769 6.1831,-0.20795 5.28618,-0.0299 6.15073,-0.0127 7.18532,0.14277 2.19473,0.32986 3.41864,0.90446 4.65996,2.18776 1.35324,1.39901 1.86347,2.72372 1.75657,4.56059 -0.0353,0.60701 -0.14165,1.25965 -0.26132,1.60393 -0.59509,1.71206 -1.97836,2.91011 -4.1586,3.60177 -1.28306,0.40703 -2.04471,0.50992 -5.34536,0.72208 -1.33628,0.0859 -2.12552,0.1789 -2.22602,0.26231 -0.22922,0.19023 -0.23045,6.16072 -0.001,6.93191 0.19228,0.64746 0.395,0.74167 2.25547,1.0481 1.4051,0.23143 1.80907,0.3483 2.00025,0.57865 0.0899,0.1083 0.0877,0.17936 -0.009,0.29603 -0.11054,0.13319 -0.90353,0.15352 -5.98879,0.15352 -5.11224,0 -5.8689,-0.0196 -5.92021,-0.15332 z m 11.3461,-10.32294 c 1.61532,-0.28996 2.99251,-1.57813 3.6486,-3.41276 0.26152,-0.73127 0.3749,-2.92791 0.19966,-3.86791 -0.12844,-0.68893 -0.51113,-1.53842 -0.90271,-2.00377 -0.31236,-0.37122 -1.19838,-0.8318 -1.97327,-1.02578 -0.61261,-0.15335 -4.03251,-0.20339 -4.52196,-0.0662 -0.15105,0.0423 -0.31071,0.18051 -0.35481,0.30703 -0.11721,0.33626 -0.0452,9.17075 0.0779,9.56245 0.0799,0.25405 0.19724,0.35958 0.53171,0.47806 0.53847,0.19076 2.30666,0.20623 3.29488,0.0288 z"
         style="opacity:1;fill:#000000"
         id="path1-6"
         sodipodi:nodetypes="cssssscsssssssssssscccsssssssssssssssssscssssssssssssssscsscscccsssssssscc" />
    </g>
  </g>
</svg>
